#!OML:ASF F:\VICON\USERDATA\INSTALL\Justin_Nancy\Justin_Nancy.ASF
:FULLY-SPECIFIED
:DEGREES
115
root 0.466456 17.3427 0.625001 -1.83588 3.28741 -0.315289
lowerback 5.8523 -2.32616 -3.10313
upperback 0.676521 -3.20163 3.80336
thorax -2.19072 -1.56467 5.93484
lowerneck -16.3508 -2.31847 -9.18216
upperneck 23.1275 -1.55934 3.23362
head 10.1998 -1.15221 2.47229
rclavicle 2.13694e-015 1.43125e-014
rhumerus -46.1606 -24.0101 -66.2174
rradius 20.581
rwrist 18.5556
rhand -14.1706 13.3639
rfingers 7.12502
rthumb 11.9646 -16.2741
lclavicle 2.13694e-015 1.43125e-014
lhumerus -27.0762 2.15833 83.1344
lradius 44.1748
lwrist -0.0571671
lhand -14.0104 28.9581
lfingers 7.12502
lthumb 12.1191 58.5871
rfemur -21.3261 6.95273 23.8596
rtibia 30.5316
rfoot -2.22738 -4.06185
rtoes 2.58334
lfemur -1.25643 -4.35645 -19.461
ltibia 58.204
lfoot 39.7966 -12.5383
ltoes 5.74072
116
root 0.446216 17.3681 0.875326 -2.00878 3.19108 -0.774625
lowerback 6.00813 -2.19134 -2.79654
upperback 0.634755 -3.00046 3.88036
thorax -2.3579 -1.46078 5.83804
lowerneck -16.0683 -2.42572 -9.18712
upperneck 23.172 -1.77091 3.35742
head 10.1774 -1.23834 2.48989
rclavicle -7.7526e-015 3.73715e-014
rhumerus -45.9882 -24.1377 -66.2789
rradius 20.3617
rwrist 18.8991
rhand -14.0359 12.6876
rfingers 7.12502
rthumb 12.0945 -16.9429
lclavicle -7.7526e-015 3.73715e-014
lhumerus -27.1579 1.94449 83.2664
lradius 43.4856
lwrist -0.00170736
lhand -14.4556 28.9144
lfingers 7.12502
lthumb 11.6898 58.5683
rfemur -20.033 7.66282 24.6883
rtibia 30.3708
rfoot -2.91993 -4.92189
rtoes 2.67821
lfemur -2.99421 -4.11259 -18.7032
ltibia 60.3481
lfoot 37.4567 -14.1086
ltoes 3.71176
117
root 0.430384 17.3967 1.12534 -1.92412 2.94942 -1.22985
lowerback 5.73479 -2.05756 -2.42341
upperback 0.624876 -2.79318 3.96157
thorax -2.25408 -1.3625 5.68305
lowerneck -15.5878 -2.48363 -9.2862
upperneck 22.9191 -1.9168 3.52446
head 10.0076 -1.29279 2.54441
rclavicle 3.74212e-014 -3.97569e-015
rhumerus -45.6177 -24.3367 -66.3033
rradius 20.0783
rwrist 19.8091
rhand -13.9806 12.6434
rfingers 7.12502
rthumb 12.1478 -16.9839
lclavicle 3.74212e-014 -3.97569e-015
lhumerus -27.2837 2.00534 83.363
lradius 42.8613
lwrist -0.142347
lhand -14.7872 28.4282
lfingers 7.12502
lthumb 11.3699 58.1
rfemur -19.0395 8.41173 25.4568
rtibia 30.1918
rfoot -3.70293 -5.53424
rtoes 3.38775
lfemur -5.10882 -3.7854 -18.0099
ltibia 62.3057
lfoot 34.7181 -15.2804
ltoes 2.4243
118
root 0.419783 17.4231 1.36856 -1.82118 2.77544 -1.51027
lowerback 5.5289 -1.93433 -2.12656
upperback 0.588217 -2.60881 3.94759
thorax -2.21206 -1.27294 5.47814
lowerneck -15.3576 -2.51209 -9.2855
upperneck 22.9006 -2.00913 3.63642
head 9.96425 -1.32376 2.57241
rclavicle 1.19768e-014 1.03368e-014
rhumerus -45.3372 -24.4985 -66.374
rradius 19.9875
rwrist 20.5878
rhand -13.5854 12.642
rfingers 7.12502
rthumb 12.5289 -16.9624
lclavicle 1.19768e-014 1.03368e-014
lhumerus -27.631 1.9866 83.4158
lradius 42.5802
lwrist -0.296147
lhand -15.2488 29.0562
lfingers 7.12502
lthumb 10.9248 58.752
rfemur -18.03 8.8794 26.0091
rtibia 29.8889
rfoot -4.30343 -6.06192
rtoes 4.10664
lfemur -7.20587 -3.45218 -17.5448
ltibia 64.0543
lfoot 31.2587 -16.0287
ltoes 1.16437
119
root 0.412251 17.4439 1.61523 -1.841 2.67966 -1.62312
lowerback 5.474 -1.82601 -1.9262
upperback 0.545261 -2.45279 3.86182
thorax -2.2551 -1.19491 5.26245
lowerneck -15.3525 -2.57861 -9.29195
upperneck 23.1285 -2.13674 3.76607
head 10.0551 -1.37298 2.60588
rclavicle -1.6027e-014 4.77083e-015
rhumerus -44.9751 -24.2167 -66.8505
rradius 20.0489
rwrist 20.4412
rhand -13.4522 12.6401
rfingers 7.12502
rthumb 12.6573 -16.9564
lclavicle -1.6027e-014 4.77083e-015
lhumerus -28.0177 1.9496 83.5069
lradius 42.2092
lwrist -0.511725
lhand -16.116 30.4172
lfingers 7.12502
lthumb 10.0882 60.1554
rfemur -16.7933 9.11097 26.3912
rtibia 29.4885
rfoot -4.9071 -6.40825
rtoes 4.77331
lfemur -9.00865 -3.16805 -17.312
ltibia 65.5931
lfoot 27.4877 -16.6876
ltoes 0.91648
120
root 0.407291 17.4724 1.8724 -2.0173 2.66031 -1.62689
lowerback 5.41973 -1.79402 -1.87423
upperback 0.558957 -2.40901 3.78473
thorax -2.22062 -1.17455 5.14624
lowerneck -15.1218 -2.61778 -9.37472
upperneck 23.2572 -2.21858 3.85452
head 10.0655 -1.4125 2.64297
rclavicle 2.63638e-014 -3.26007e-014
rhumerus -44.5032 -23.8769 -67.3267
rradius 20.0656
rwrist 20.4825
rhand -13.6229 12.7504
rfingers 7.12502
rthumb 12.4927 -16.8562
lclavicle 2.63638e-014 -3.26007e-014
lhumerus -28.4348 2.09742 83.5674
lradius 41.7222
lwrist -0.662835
lhand -16.5079 30.6184
lfingers 7.12502
lthumb 9.71014 60.3746
rfemur -15.3693 9.13844 26.6611
rtibia 29.098
rfoot -5.5808 -6.56154
rtoes 5.05532
lfemur -10.5336 -3.00062 -17.2762
ltibia 66.8753
lfoot 23.2401 -16.6207
ltoes 3.73449
121
root 0.403409 17.5019 2.12917 -2.1857 2.82806 -1.68201
lowerback 5.30222 -1.8226 -1.79497
upperback 0.568662 -2.44385 3.73481
thorax -2.14677 -1.19442 5.04559
lowerneck -14.834 -2.63268 -9.50689
upperneck 23.377 -2.26441 3.9614
head 10.0602 -1.43806 2.69993
rclavicle 4.47266e-015 -1.59028e-014
rhumerus -44.1321 -23.557 -67.6985
rradius 20.1469
rwrist 20.776
rhand -13.9872 12.9877
rfingers 7.12502
rthumb 12.1414 -16.64
lclavicle 4.47266e-015 -1.59028e-014
lhumerus -28.8873 2.38786 83.5962
lradius 41.0271
lwrist -1.10941
lhand -16.5422 28.1323
lfingers 7.12502
lthumb 9.67706 57.89
rfemur -13.9989 9.01397 26.941
rtibia 28.6783
rfoot -6.28186 -6.82259
rtoes 4.73706
lfemur -12.062 -3.02719 -17.2239
ltibia 67.9736
lfoot 19.0061 -16.3195
ltoes 3.46132
122
root 0.397506 17.5159 2.37158 -2.14366 2.75239 -1.88375
lowerback 5.24083 -1.73984 -1.58684
upperback 0.53088 -2.32033 3.73481
thorax -2.17208 -1.13316 4.91789
lowerneck -15.0757 -2.65629 -9.51856
upperneck 23.6839 -2.29474 4.04761
head 10.2201 -1.44701 2.73242
rclavicle -1.2424e-014 -2.46493e-014
rhumerus -43.5932 -23.2701 -68.1935
rradius 20.3191
rwrist 20.7388
rhand -14.1991 12.7672
rfingers 7.12502
rthumb 11.9371 -16.8725
lclavicle -1.2424e-014 -2.46493e-014
lhumerus -29.2544 2.80746 83.6003
lradius 40.275
lwrist -1.89877
lhand -16.948 25.2111
lfingers 7.12502
lthumb 9.28548 54.9867
rfemur -12.9526 8.88491 27.3304
rtibia 28.2622
rfoot -6.92025 -6.76302
rtoes 4.4354
lfemur -13.9096 -2.68569 -16.9662
ltibia 68.9386
lfoot 14.5241 -15.913
ltoes -0.234425
123
root 0.392131 17.5256 2.60098 -1.86436 2.22866 -2.09075
lowerback 5.08478 -1.51626 -1.32032
upperback 0.47638 -2.00583 3.7365
thorax -2.18033 -0.977058 4.74348
lowerneck -15.2675 -2.72071 -9.56444
upperneck 23.7282 -2.35975 4.07391
head 10.2792 -1.47697 2.74076
rclavicle 2.48481e-014 -1.51076e-014
rhumerus -42.7548 -23.141 -68.6667
rradius 20.4084
rwrist 20.5193
rhand -14.1198 12.3749
rfingers 7.12502
rthumb 12.0136 -17.2603
lclavicle 2.48481e-014 -1.51076e-014
lhumerus -29.5881 3.12279 83.6237
lradius 39.8064
lwrist -2.30927
lhand -16.9353 25.65
lfingers 7.12502
lthumb 9.29781 55.425
rfemur -12.302 8.82017 27.6895
rtibia 28.0119
rfoot -7.65062 -6.27236
rtoes 4.37954
lfemur -16.1341 -1.8304 -16.7239
ltibia 69.739
lfoot 9.87927 -15.0944
ltoes -2.33369
124
root 0.391213 17.5315 2.83594 -1.723 1.87618 -2.19166
lowerback 4.81552 -1.34097 -1.16235
upperback 0.491921 -1.76566 3.72436
thorax -2.04057 -0.860801 4.61627
lowerneck -15.097 -2.7037 -9.68458
upperneck 23.6391 -2.34378 4.16512
head 10.2158 -1.46934 2.79515
rclavicle 2.50966e-014 2.06736e-014
rhumerus -41.8892 -22.8593 -69.2039
rradius 20.616
rwrist 20.0785
rhand -14.0021 12.3593
rfingers 7.12502
rthumb 12.1271 -17.2693
lclavicle 2.50966e-014 2.06736e-014
lhumerus -29.9888 3.27358 83.7669
lradius 39.5041
lwrist -2.39747
lhand -16.5924 27.4447
lfingers 7.12502
lthumb 9.62863 57.2046
rfemur -11.5379 8.67788 27.9396
rtibia 27.9469
rfoot -8.52994 -6.00538
rtoes 5.36577
lfemur -17.9708 -1.29772 -16.649
ltibia 70.2227
lfoot 6.72067 -13.8238
ltoes -5.6878
125
root 0.392095 17.5157 3.07953 -1.7858 1.67338 -2.40052
lowerback 4.60813 -1.20405 -0.927794
upperback 0.608619 -1.57502 3.74971
thorax -1.82657 -0.771846 4.48927
lowerneck -15.0919 -2.69271 -9.79732
upperneck 23.6953 -2.33097 4.28889
head 10.2369 -1.46007 2.86125
rclavicle -1.07841e-014 5.40694e-014
rhumerus -41.1131 -22.3401 -69.8839
rradius 21.0874
rwrist 19.3174
rhand -14.112 12.642
rfingers 7.12502
rthumb 12.0211 -16.9928
lclavicle -1.07841e-014 5.40694e-014
lhumerus -30.256 3.43035 83.9165
lradius 39.0474
lwrist -2.4088
lhand -16.3696 27.6154
lfingers 7.12502
lthumb 9.84362 57.3653
rfemur -10.5184 8.20665 28.3616
rtibia 27.9046
rfoot -9.47399 -5.76709
rtoes 5.22057
lfemur -19.1779 -1.02184 -16.4422
ltibia 70.4177
lfoot 4.52896 -12.3117
ltoes -8.49668
